<?xml version="1.0" encoding="UTF-8"?>
<svg id="Camada_1" data-name="Camada 1" xmlns="http://www.w3.org/2000/svg" viewBox="0 0 870 300">
  <defs>
    <style>
      .cls-1 {
        letter-spacing: .1em;
      }

      .cls-2 {
        letter-spacing: .1em;
      }

      .cls-3 {
        letter-spacing: .1em;
      }

      .cls-4 {
        letter-spacing: .09em;
      }

      .cls-5 {
        fill: #00bcd4;
      }

      .cls-6, .cls-7 {
        fill: #fff;
      }

      .cls-8 {
        letter-spacing: .09em;
      }

      .cls-7 {
        font-family: Montserrat-Medium, Montserrat;
        font-size: 34.05px;
        font-weight: 500;
      }
    </style>
  </defs>
  <text class="cls-7" transform="translate(261.52 266.06) scale(1.05 1)"><tspan class="cls-4" x="0" y="0">CY</tspan><tspan class="cls-2" x="52.64" y="0">BER S</tspan><tspan class="cls-1" x="173.32" y="0">EC</tspan><tspan class="cls-3" x="227.36" y="0">URI</tspan><tspan clas="cls-8" x="299.82" y="0">T</tspan><tspan class="cls-3" x="322.94" y="0">Y</tspan></text>
  <g>
    <g>
      <path class="cls-6" d="m407.06,119.42c0-45.9,34.99-80.21,81.58-80.21,20.91,0,40.45,6.59,54.08,20.22l-2.73,3.18c-14.54-13.86-32.04-19.09-51.36-19.09-43.86,0-77.03,32.95-77.03,75.9s33.18,75.9,77.03,75.9c19.32,0,36.81-5.45,51.36-19.31l2.73,3.18c-13.63,13.63-33.18,20.45-54.08,20.45-46.58,0-81.58-34.31-81.58-80.21Z"/>
      <path class="cls-6" d="m488.64,202.49c-48.14,0-84.44-35.71-84.44-83.07s36.3-83.08,84.44-83.08c22.6,0,42.52,7.48,56.11,21.06l1.87,1.87-6.41,7.48-2.18-2.08c-12.92-12.31-29.07-18.3-49.38-18.3-42.28,0-74.17,31.4-74.17,73.04s31.89,73.04,74.17,73.04c20.15,0,36.3-6.06,49.38-18.52l2.18-2.08,6.41,7.48-1.87,1.87c-13.73,13.73-33.65,21.29-56.11,21.29Z"/>
    </g>
    <rect class="cls-5" x="9" y="192.01" width="102.36" height="10.01"/>
    <rect class="cls-5" x="9" y="113.65" width="102.36" height="10.01"/>
    <rect class="cls-5" x="9" y="36.38" width="102.36" height="10.01"/>
    <g>
      <path class="cls-6" d="m197.52,120.15l-59.87,79.6h-5.51l62.62-83.04-58.04-77.53h5.74l55.28,74.09,55.28-74.09h5.51l-58.04,77.53,62.62,83.04h-5.73l-59.87-79.6"/>
      <polygon class="cls-6" points="268.86 202.61 255.96 202.61 197.52 124.9 139.07 202.61 126.4 202.61 191.19 116.7 131.01 36.31 143.9 36.31 197.75 108.48 251.59 36.31 264.25 36.31 204.08 116.7 268.86 202.61"/>
    </g>
    <rect class="cls-5" x="681.56" y="84.94" width="10.01" height="67.45" transform="translate(563.09 804.38) rotate(-89.6)"/>
    <g>
      <path class="cls-6" d="m604.72,43.56h-59.59v-4.35h123.76v4.35h-59.59v156.07h-4.58V43.56Z"/>
      <polygon class="cls-6" points="612.17 202.49 601.86 202.49 601.86 46.42 542.27 46.42 542.27 36.34 671.75 36.34 671.75 46.42 612.17 46.42 612.17 202.49"/>
    </g>
    <g>
      <path class="cls-6" d="m848.25,39.2h4.58v160.43h-4.58V39.2Z"/>
      <rect class="cls-6" x="845.39" y="36.34" width="10.31" height="166.15"/>
    </g>
    <g>
      <path class="cls-6" d="m392.89,151.8l-48.63-104.98-70.9,152.93h-5.23l73.85-159.06h4.55l73.85,159.06h-5.23l-22.27-47.95Zm-2.04-4.32l-46.58-100.66"/>
      <polygon class="cls-6" points="424.87 202.61 413.33 202.61 388.28 148.66 388.25 148.68 344.26 53.62 275.19 202.61 263.65 202.61 340.16 37.82 348.36 37.82 424.87 202.61"/>
    </g>
    <g>
      <path class="cls-6" d="m769.4,43.56h-59.59v-4.35h123.76v4.35h-59.59v156.07h-4.58V43.56Z"/>
      <polygon class="cls-6" points="776.85 202.49 766.54 202.49 766.54 46.42 706.96 46.42 706.96 36.34 836.44 36.34 836.44 46.42 776.85 46.42 776.85 202.49"/>
    </g>
    <rect class="cls-5" x="302.18" y="84.94" width="10.01" height="67.45" transform="translate(186.37 425.01) rotate(-89.6)"/>
  </g>
</svg>