<?xml version="1.0" encoding="utf-8"?>
<!-- Generator: Adobe Illustrator 27.6.1, SVG Export Plug-In . SVG Version: 6.00 Build 0)  -->
<svg version="1.1" id="Camada_1" xmlns:svg="http://www.w3.org/2000/svg"
	 xmlns="http://www.w3.org/2000/svg" xmlns:xlink="http://www.w3.org/1999/xlink" x="0px" y="0px" viewBox="0 0 870 300"
	 style="enable-background:new 0 0 870 300;" xml:space="preserve">
<style type="text/css">
	.st0{fill:#FFFFFF;}
	.st1{fill:#00BCD4;}
	.st2{fill:none;stroke:#000000;stroke-width:4;stroke-miterlimit:10;}
</style>
<g>
	<g>
		<path class="st0" d="M258.3,258.5c0-7,5.6-12.2,13.2-12.2c3.9,0,7.2,1.3,9.5,3.7l-2.3,2.1c-1.9-1.9-4.3-2.8-7-2.8
			c-5.6,0-9.8,3.9-9.8,9.2c0,5.3,4.2,9.2,9.8,9.2c2.7,0,5.1-0.9,7-2.9l2.3,2.1c-2.3,2.5-5.6,3.7-9.5,3.7
			C263.9,270.6,258.3,265.5,258.3,258.5z"/>
		<path class="st0" d="M298.8,262.1v8.2h-3.5v-8.3l-9.9-15.5h3.8l8,12.6l8-12.6h3.5L298.8,262.1z"/>
		<path class="st0" d="M336.9,263.9c0,4.1-3.2,6.4-9.6,6.4h-11.9v-23.8h11.2c5.7,0,9,2.3,9,6.2c0,2.6-1.4,4.4-3.4,5.3
			C335.1,258.8,336.9,260.8,336.9,263.9z M319,249.3v7.6h7.3c3.6,0,5.7-1.3,5.7-3.8s-2.1-3.8-5.7-3.8H319z M333.3,263.7
			c0-2.8-2.1-4-6.1-4H319v7.9h8.2C331.2,267.6,333.3,266.4,333.3,263.7z"/>
		<path class="st0" d="M364.1,267.4v3H346v-23.8h17.6v3h-14v7.3h12.5v2.9h-12.5v7.7H364.1z"/>
		<path class="st0" d="M390.2,270.4l-5.4-7.3c-0.5,0-1,0.1-1.6,0.1H377v7.3h-3.6v-23.8h9.7c6.5,0,10.4,3.1,10.4,8.3
			c0,3.7-2,6.3-5.5,7.5l5.9,8H390.2z M390.1,254.8c0-3.4-2.4-5.3-7-5.3H377v10.7h6.1C387.7,260.2,390.1,258.2,390.1,254.8z"/>
		<path class="st0" d="M413.8,267.6l1.3-2.7c1.9,1.6,5,2.8,8.2,2.8c4.3,0,6.2-1.6,6.2-3.7c0-5.8-15.1-2.1-15.1-11
			c0-3.7,3-6.8,9.6-6.8c2.9,0,6,0.7,8,2.1l-1.2,2.7c-2.2-1.3-4.6-1.9-6.8-1.9c-4.2,0-6.1,1.7-6.1,3.8c0,5.8,15.1,2.2,15.1,10.9
			c0,3.6-3.1,6.8-9.7,6.8C419.6,270.6,415.8,269.4,413.8,267.6z"/>
		<path class="st0" d="M459.9,267.4v3h-18.1v-23.8h17.6v3h-14v7.3h12.5v2.9h-12.5v7.7H459.9z"/>
		<path class="st0" d="M467.2,258.5c0-7,5.6-12.2,13.2-12.2c3.9,0,7.2,1.3,9.5,3.7l-2.3,2.1c-1.9-1.9-4.3-2.8-7-2.8
			c-5.6,0-9.8,3.9-9.8,9.2c0,5.3,4.2,9.2,9.8,9.2c2.7,0,5.1-0.9,7-2.9l2.3,2.1c-2.3,2.5-5.6,3.7-9.5,3.7
			C472.8,270.6,467.2,265.5,467.2,258.5z"/>
		<path class="st0" d="M498.2,260.1v-13.5h3.6v13.4c0,5.3,2.5,7.7,7,7.7c4.5,0,7.1-2.4,7.1-7.7v-13.4h3.5v13.5
			c0,6.9-4,10.6-10.6,10.6C502.2,270.6,498.2,267,498.2,260.1z"/>
		<path class="st0" d="M546.9,270.4l-5.4-7.3c-0.5,0-1,0.1-1.6,0.1h-6.2v7.3h-3.6v-23.8h9.7c6.5,0,10.4,3.1,10.4,8.3
			c0,3.7-2,6.3-5.5,7.5l5.9,8H546.9z M546.8,254.8c0-3.4-2.4-5.3-7-5.3h-6.1v10.7h6.1C544.4,260.2,546.8,258.2,546.8,254.8z"/>
		<path class="st0" d="M559.7,246.5h3.6v23.8h-3.6V246.5z"/>
		<path class="st0" d="M579.3,249.5h-8.6v-3h20.6v3h-8.6v20.9h-3.5V249.5z"/>
		<path class="st0" d="M608.1,262.1v8.2h-3.5v-8.3l-9.9-15.5h3.8l8,12.6l8-12.6h3.5L608.1,262.1z"/>
	</g>
	<g>
		<g>
			<g>
				<path class="st0" d="M402.1,123.8c0-45.9,35-80.2,81.6-80.2c20.9,0,40.4,6.6,54.1,20.2L535,67c-14.5-13.9-32-19.1-51.3-19.1
					c-43.8,0-77,32.9-77,75.9c0,42.9,33.2,75.9,77,75.9c19.3,0,36.8-5.5,51.3-19.3l2.7,3.2c-13.6,13.6-33.2,20.4-54.1,20.4
					C437.1,204,402.1,169.7,402.1,123.8z"/>
				<path class="st0" d="M483.6,206.8c-48.1,0-84.4-35.7-84.4-83.1c0-47.3,36.3-83.1,84.4-83.1c22.6,0,42.5,7.5,56.1,21.1l1.9,1.9
					l-6.4,7.5L533,69c-12.9-12.3-29.1-18.3-49.4-18.3c-42.3,0-74.2,31.4-74.2,73s31.9,73,74.2,73c20.1,0,36.3-6.1,49.4-18.5l2.2-2.1
					l6.4,7.5l-1.9,1.9C526,199.3,506.1,206.8,483.6,206.8z"/>
			</g>
		</g>
		<g>
			<rect x="4.1" y="196.3" class="st1" width="102.3" height="10"/>
		</g>
		<g>
			<rect x="4.1" y="118" class="st1" width="102.3" height="10"/>
		</g>
		<g>
			<rect x="4.1" y="40.8" class="st1" width="102.3" height="10"/>
		</g>
		<g>
			<g>
				<path class="st0" d="M192.6,124.5l-59.9,79.6h-5.5l62.6-83l-58-77.5h5.7l55.3,74.1l55.3-74.1h5.5l-58,77.5l62.6,83h-5.7
					L192.6,124.5"/>
				<polygon class="st0" points="263.9,206.9 251,206.9 192.6,129.3 134.2,206.9 121.5,206.9 186.3,121 126.1,40.7 139,40.7 
					192.8,112.8 246.6,40.7 259.3,40.7 199.1,121 				"/>
			</g>
		</g>
		<g>
			
				<rect x="676.5" y="89.3" transform="matrix(7.010402e-03 -1 1 7.010402e-03 553.7153 803.6317)" class="st1" width="10" height="67.4"/>
		</g>
		<g>
			<path class="st2" d="M764,29.4"/>
		</g>
		<g>
			<path class="st2" d="M873.9,29.4"/>
		</g>
		<g>
			<g>
				<path class="st0" d="M599.7,47.9h-59.6v-4.4h123.7v4.4h-59.6v156h-4.6V47.9z"/>
				<polygon class="st0" points="607.1,206.8 596.8,206.8 596.8,50.8 537.2,50.8 537.2,40.7 666.7,40.7 666.7,50.8 607.1,50.8 				
					"/>
			</g>
		</g>
		<g>
			<g>
				<path class="st0" d="M843.1,43.6h4.6V204h-4.6V43.6z"/>
				<rect x="840.3" y="40.7" class="st0" width="10.3" height="166.1"/>
			</g>
		</g>
		<g>
			<g>
				<path class="st0" d="M387.9,156.1l-48.6-105l-70.9,152.9h-5.2l73.8-159h4.5l73.8,159h-5.2L387.9,156.1z M385.9,151.8L339.3,51.2
					"/>
				<polygon class="st0" points="419.9,206.9 408.3,206.9 383.3,153 383.3,153 339.3,58 270.2,206.9 258.7,206.9 335.2,42.2 
					343.4,42.2 				"/>
			</g>
		</g>
		<g>
			<g>
				<path class="st0" d="M764.3,47.9h-59.6v-4.4h123.7v4.4h-59.6v156h-4.6V47.9z"/>
				<polygon class="st0" points="771.8,206.8 761.5,206.8 761.5,50.8 701.9,50.8 701.9,40.7 831.3,40.7 831.3,50.8 771.8,50.8 				
					"/>
			</g>
		</g>
		<g>
			
				<rect x="297.2" y="89.3" transform="matrix(7.010402e-03 -1 1 7.010402e-03 177.0972 424.364)" class="st1" width="10" height="67.4"/>
		</g>
	</g>
</g>
</svg>
