<?xml version="1.0" encoding="utf-8"?>
<!-- Generator: Adobe Illustrator 27.6.1, SVG Export Plug-In . SVG Version: 6.00 Build 0)  -->
<svg version="1.1" id="Camada_1" xmlns="http://www.w3.org/2000/svg" xmlns:xlink="http://www.w3.org/1999/xlink" x="0px" y="0px"
	 viewBox="0 0 1024 200" style="enable-background:new 0 0 1024 200;" xml:space="preserve">
<style type="text/css">
	.st0{fill:#00BCD4;}
	.st1{fill:none;stroke:#000000;stroke-width:4;stroke-miterlimit:10;}
</style>
<g>
	<g>
		<path d="M471.8,101.2c0-51.1,39-89.4,90.9-89.4c23.3,0,45.1,7.3,60.3,22.5l-3,3.5c-16.2-15.4-35.7-21.3-57.2-21.3
			c-48.9,0-85.8,36.7-85.8,84.6c0,47.9,37,84.6,85.8,84.6c21.5,0,41-6.1,57.2-21.5l3,3.5c-15.2,15.2-37,22.8-60.3,22.8
			C510.8,190.6,471.8,152.4,471.8,101.2z"/>
		<path d="M562.7,193.8c-53.6,0-94.1-39.8-94.1-92.6c0-52.8,40.4-92.6,94.1-92.6c25.2,0,47.4,8.3,62.5,23.5l2.1,2.1l-7.1,8.3
			l-2.4-2.3c-14.4-13.7-32.4-20.4-55-20.4c-47.1,0-82.6,35-82.6,81.4s35.5,81.4,82.6,81.4c22.5,0,40.5-6.8,55-20.6l2.4-2.3l7.1,8.3
			l-2.1,2.1C610,185.4,587.8,193.8,562.7,193.8z"/>
	</g>
	<rect x="28.3" y="94.8" class="st0" width="114.1" height="11.2"/>
	<rect x="28.3" y="8.7" class="st0" width="114.1" height="11.2"/>
	<g>
		<path d="M238.3,102l-66.7,88.7h-6.1l69.8-92.5l-64.7-86.4h6.4l61.6,82.6l61.6-82.6h6.1l-64.7,86.4l69.8,92.5h-6.4L238.3,102"/>
		<polygon points="317.8,193.9 303.5,193.9 238.3,107.3 173.2,193.9 159.1,193.9 231.3,98.2 164.2,8.6 178.6,8.6 238.6,89 
			298.6,8.6 312.7,8.6 245.7,98.2 		"/>
	</g>
	
		<rect x="777.7" y="62.8" transform="matrix(7.010402e-03 -1 1 7.010402e-03 677.42 882.9431)" class="st0" width="11.2" height="75.2"/>
	<path class="st1" d="M875.2-4"/>
	<path class="st1" d="M997.7-4"/>
	<g>
		<path d="M692.1,16.7h-66.4v-4.9h137.9v4.9h-66.4v173.9h-5.1V16.7z"/>
		<polygon points="700.4,193.8 688.9,193.8 688.9,19.9 622.5,19.9 622.5,8.7 766.8,8.7 766.8,19.9 700.4,19.9 		"/>
	</g>
	<g>
		<path d="M963.4,11.8h5.1v178.8h-5.1V11.8z"/>
		<rect x="960.3" y="8.7" width="11.5" height="185.1"/>
	</g>
	<g>
		<path d="M456,137.3l-54.2-117l-79,170.4H317l82.3-177.2h5.1l82.3,177.2h-5.8L456,137.3z M453.8,132.5L401.9,20.3"/>
		<polygon points="491.7,193.9 478.8,193.9 450.9,133.8 450.9,133.8 401.9,27.9 324.9,193.9 312,193.9 397.3,10.3 406.4,10.3 		"/>
	</g>
	<g>
		<path d="M875.6,16.7h-66.4v-4.9h137.9v4.9h-66.4v173.9h-5.1V16.7z"/>
		<polygon points="883.9,193.8 872.4,193.8 872.4,19.9 806,19.9 806,8.7 950.3,8.7 950.3,19.9 883.9,19.9 		"/>
	</g>
	
		<rect x="355" y="62.8" transform="matrix(7.010402e-03 -1 1 7.010402e-03 257.647 460.2168)" class="st0" width="11.2" height="75.2"/>
	<rect x="28.3" y="182.8" class="st0" width="114.1" height="11.2"/>
</g>
</svg>
