<?xml version="1.0" encoding="utf-8"?>
<!-- Generator: Adobe Illustrator 27.6.1, SVG Export Plug-In . SVG Version: 6.00 Build 0)  -->
<svg version="1.1" id="Camada_1" xmlns="http://www.w3.org/2000/svg" xmlns:xlink="http://www.w3.org/1999/xlink" x="0px" y="0px"
	 viewBox="0 0 1024 200" style="enable-background:new 0 0 1024 200;" xml:space="preserve">
<style type="text/css">
	.st0{fill:#FFFFFF;}
	.st1{fill:#00BCD4;}
	.st2{fill:none;stroke:#000000;stroke-width:4;stroke-miterlimit:10;}
</style>
<g>
	<g>
		<g>
			<g>
				<path class="st0" d="M470.4,103.3c0-51.7,39.4-90.3,91.9-90.3c23.5,0,45.5,7.4,60.9,22.8l-3.1,3.6
					c-16.4-15.6-36.1-21.5-57.8-21.5c-49.4,0-86.7,37.1-86.7,85.5c0,48.4,37.4,85.5,86.7,85.5c21.7,0,41.5-6.1,57.8-21.7l3.1,3.6
					c-15.4,15.4-37.4,23-60.9,23C509.8,193.7,470.4,155,470.4,103.3z"/>
				<path class="st0" d="M562.3,196.9c-54.2,0-95.1-40.2-95.1-93.5c0-53.3,40.9-93.5,95.1-93.5c25.4,0,47.9,8.4,63.2,23.7l2.1,2.1
					l-7.2,8.4l-2.5-2.3c-14.5-13.9-32.7-20.6-55.6-20.6c-47.6,0-83.5,35.4-83.5,82.2s35.9,82.2,83.5,82.2c22.7,0,40.9-6.8,55.6-20.9
					l2.5-2.3l7.2,8.4l-2.1,2.1C610,188.4,587.5,196.9,562.3,196.9z"/>
			</g>
		</g>
		<g>
			<rect x="22.2" y="185.1" class="st1" width="115.3" height="11.3"/>
		</g>
		<g>
			<rect x="22.2" y="96.8" class="st1" width="110.3" height="11.3"/>
 		</g>
		<g>
			<rect x="22.2" y="9.8" class="st1" width="115.3" height="11.3"/>
		</g>
		<g>
			<g>
				<path class="st0" d="M234.5,104.1L167,193.8h-6.2l70.5-93.5L166,13h6.5l62.2,83.4L297,13h6.2l-65.3,87.3l70.5,93.5h-6.5
					L234.5,104.1"/>
				<polygon class="st0" points="314.8,197 300.3,197 234.5,109.5 168.6,197 154.4,197 227.3,100.3 159.6,9.7 174.1,9.7 234.7,91 
					295.3,9.7 309.6,9.7 241.8,100.3 				"/>
			</g>
		</g>
		<g>
			
				<rect x="779.5" y="64.5" transform="matrix(7.010402e-03 -1 1 7.010402e-03 677.1541 886.8732)" class="st1" width="11.3" height="75.9"/>
		</g>
		<g>
			<path class="st2" d="M878.1-3"/>
		</g>
		<g>
			<path class="st2" d="M1001.8-3"/>
		</g>
		<g>
			<g>
				<path class="st0" d="M693,17.9h-67.1V13h139.4v4.9h-67.1v175.7H693V17.9z"/>
				<polygon class="st0" points="701.4,196.9 689.8,196.9 689.8,21.1 622.7,21.1 622.7,9.8 768.5,9.8 768.5,21.1 701.4,21.1 				"/>
			</g>
		</g>
		<g>
			<g>
				<path class="st0" d="M967.2,13h5.2v180.6h-5.2V13z"/>
				<rect x="964" y="9.8" class="st0" width="11.6" height="187.1"/>
			</g>
		</g>
		<g>
			<g>
				<path class="st0" d="M454.4,139.8L399.7,21.6l-79.8,172.2H314l83.2-179.1h5.1l83.2,179.1h-5.9L454.4,139.8z M452.1,134.9
					L399.7,21.6"/>
				<polygon class="st0" points="490.5,197 477.5,197 449.3,136.3 449.2,136.3 399.7,29.2 321.9,197 308.9,197 395.1,11.4 
					404.3,11.4 				"/>
			</g>
		</g>
		<g>
			<g>
				<path class="st0" d="M878.4,17.9h-67.1V13h139.4v4.9h-67.1v175.7h-5.2V17.9z"/>
				<polygon class="st0" points="886.8,196.9 875.2,196.9 875.2,21.1 808.1,21.1 808.1,9.8 953.9,9.8 953.9,21.1 886.8,21.1 				"/>
			</g>
		</g>
		<g>
			
				<rect x="352.3" y="64.5" transform="matrix(7.010402e-03 -1 1 7.010402e-03 252.9611 459.696)" class="st1" width="11.3" height="75.9"/>
		</g>
	</g>
</g>
</svg>
