<?xml version="1.0" encoding="utf-8"?>
<!-- Generator: Adobe Illustrator 27.6.1, SVG Export Plug-In . SVG Version: 6.00 Build 0)  -->
<svg version="1.1" id="Capa_1" xmlns="http://www.w3.org/2000/svg" xmlns:xlink="http://www.w3.org/1999/xlink" x="0px" y="0px"
	 viewBox="0 0 64 64" style="enable-background:new 0 0 64 64;" xml:space="preserve">
<style type="text/css">
	.st0{fill:#1EB8D1;stroke:#1EB8D1;stroke-width:2;stroke-miterlimit:10;}
	.st1{fill:#FFFFFF;stroke:#FFFFFF;stroke-width:2;stroke-miterlimit:10;}
</style>
<g>
	<g>
		<g>
			<rect x="3.3" y="47.4" class="st0" width="21.5" height="2.1"/>
		</g>
		<g>
			<rect x="3.3" y="30.7" class="st0" width="21.5" height="2.1"/>
		</g>
		<g>
			<rect x="3.3" y="14.6" class="st0" width="21.5" height="2.1"/>
		</g>
		<g>
			<g>
				<path class="st1" d="M45.9,32l-12.5,16.5h-1.1l13-17.3L33.2,15.2h1.2l11.5,15.4l11.5-15.4h1.1L46.5,31.3l13,17.3h-1.2L45.9,32"/>
				<polygon class="st1" points="60.7,49.1 58,49.1 45.9,33 33.7,49.1 31.1,49.1 44.6,31.3 32,14.6 34.7,14.6 45.9,29.6 57.1,14.6 
					59.8,14.6 47.2,31.3 				"/>
			</g>
		</g>
	</g>
</g>
</svg>
