<?xml version="1.0" encoding="utf-8"?>
<!-- Generator: Adobe Illustrator 27.6.1, SVG Export Plug-In . SVG Version: 6.00 Build 0)  -->
<svg version="1.1" id="Capa_1" xmlns="http://www.w3.org/2000/svg" xmlns:xlink="http://www.w3.org/1999/xlink" x="0px" y="0px"
	 viewBox="0 0 64 64" style="enable-background:new 0 0 64 64;" xml:space="preserve">
<style type="text/css">
	.st0{fill:#1EB8D1;stroke:#1EB8D1;stroke-width:3;stroke-miterlimit:10;}
	.st1{fill:#020203;stroke:#020203;stroke-width:3;stroke-miterlimit:10;}
</style>
<g>
	<rect x="2.5" y="30.6" class="st0" width="21.7" height="2.1"/>
	<rect x="2.5" y="14.3" class="st0" width="21.7" height="2.1"/>
	<g>
		<path class="st1" d="M45.6,32L33,48.8h-1.2L45,31.3L32.8,14.9H34l11.6,15.6l11.6-15.6h1.2L46.2,31.3l13.2,17.5h-1.2L45.6,32"/>
		<polygon class="st1" points="60.6,49.4 57.9,49.4 45.6,33 33.3,49.4 30.6,49.4 44.3,31.3 31.6,14.3 34.3,14.3 45.7,29.5 57,14.3 
			59.7,14.3 47,31.3 		"/>
	</g>
	<rect x="2.5" y="47.6" class="st0" width="21.7" height="2.1"/>
</g>
</svg>
